<svg width="153" height="149" viewBox="0 0 153 149" fill="none" xmlns="http://www.w3.org/2000/svg">
<g clip-path="url(#clip0_2_577)">
<path d="M54.01 24.7765H69.9346C77.498 15.0302 80.6297 14.2871 90.6749 19.7176C101.37 14.9159 102.434 15.2017 108.343 24.3763H128.551V0.825314C129.615 0.768151 130.708 0.682407 131.771 0.625244C132.362 5.19826 133.367 9.77128 133.485 14.3443C134.165 48.2989 134.667 82.2536 135.258 116.208C135.317 119.009 135.553 121.81 135.701 125.011C138.064 125.297 139.955 125.754 141.817 125.726C148.553 125.611 152.659 128.069 152.719 135.158C152.807 142.875 150.207 145.304 141.787 146.276C96.5838 151.535 51.4397 146.047 6.26595 145.99C4.43418 145.99 2.63196 145.19 0.977462 144.818C0.238847 131.385 2.69105 128.069 15.3657 126.012C15.5725 123.782 16.0748 121.296 16.0452 118.838C15.7793 93.9148 15.2771 68.9918 15.218 44.0403C15.218 32.4077 15.927 20.7751 16.5475 9.17107C16.6361 7.2847 18.0247 5.42691 18.7929 3.56912C19.561 3.71203 20.2996 3.85494 21.0678 3.99784V24.6622C25.5881 25.0909 29.0744 25.4339 32.2061 25.7197C40.9809 12.8295 47.8057 15.7734 54.01 24.7193V24.7765ZM47.5102 99.8025C39.7991 105.862 33.6538 104.804 28.3949 97.8304C26.3858 98.0591 24.5245 98.2877 21.9541 98.5735V125.812H129.231V96.1441H91.5908C82.9933 103.918 80.5706 103.947 70.9686 96.4013C63.0507 95.744 57.2304 109.549 47.4511 99.7739L47.5102 99.8025ZM128.049 59.7315V29.521H106.895C102.552 35.9804 96.377 35.7231 90.1431 31.3502C82.2645 34.9514 75.4102 34.2464 69.58 29.2352H53.9509C44.9989 36.9236 42.4581 36.9807 32.2652 29.4924C29.1039 29.864 25.3813 30.2927 21.8064 30.7214V60.3031H43.2262C49.0761 52.3575 54.335 50.271 63.4052 60.6175H72.7709C84.3523 48.2418 86.7159 52.3575 93.8657 60.3031H100.543C107.87 48.5276 113.424 48.8706 120.574 59.7315H128.078H128.049ZM22.0723 93.2288C25.1154 92.8573 28.6903 93.4575 29.813 92.1141C35.3969 85.5118 41.424 86.3693 47.6284 90.2278C56.61 83.9685 57.3781 84.1114 65.3552 90.7422C66.8915 92.0284 69.5505 92.0856 70.6436 92.4C74.5435 88.8273 77.4389 86.1692 81.132 82.768C85.4159 85.7977 89.0204 88.3414 93.7771 91.6854H128.492V63.2756C122.997 65.0762 118.831 65.9622 115.108 67.7628C110.706 69.8779 107.249 69.7349 102.788 67.3913C99.686 65.7621 94.3384 65.2477 91.443 66.7625C81.7229 71.9071 81.5456 72.3358 71.3527 64.8475C68.3096 65.2763 63.287 64.5331 60.8939 66.6196C53.8918 72.7074 48.3079 71.6785 43.2558 65.905H22.0723V93.2002V93.2288ZM5.9705 141.674C53.5373 141.474 99.6269 145.761 145.894 141.017V131.814H7.74318C7.12274 135.215 6.70912 137.616 5.9705 141.674ZM77.0253 31.6074C78.0298 31.8932 79.0639 32.2076 80.0684 32.4934C82.2547 30.1784 84.8841 28.0633 86.3318 25.3767C86.775 24.5193 84.1455 20.7751 82.6683 20.6322C80.5411 20.4321 76.848 21.8326 76.2867 23.4046C75.4299 25.7768 76.6707 28.835 77.0253 31.6074ZM86.3909 56.2445C85.0023 56.0445 83.6137 55.8158 82.2547 55.6158C80.3934 58.674 78.5321 61.7322 76.7594 64.676C82.0183 68.6203 85.7409 68.4202 87.5136 64.5046C88.4886 62.3324 86.8636 59.0455 86.4205 56.2731L86.3909 56.2445ZM47.5398 31.3216C48.1602 30.5785 48.8102 29.8068 49.4306 29.0637C48.3375 26.6057 47.8647 23.4046 45.9444 21.9183C44.7921 21.0323 40.9513 22.2327 39.2377 23.5761C38.2332 24.3763 38.2923 28.5206 39.1491 29.0065C41.5718 30.3784 44.6739 30.6071 47.5398 31.293V31.3216ZM49.8442 96.4299C50.5829 97.4874 51.351 98.5164 52.0896 99.5739C54.985 98.6021 58.8553 98.402 60.4508 96.4585C61.6916 94.9437 60.1258 91.2567 59.8303 88.5415L56.4622 87.7698C54.2464 90.6565 52.0305 93.5432 49.8147 96.4299H49.8442ZM74.2481 93.8862C78.3548 96.3156 80.7184 97.7161 82.9342 99.0308C88.3409 94.3149 88.6659 90.7994 82.2251 86.9123C80.1866 88.6844 78.0593 90.5708 74.2481 93.8862ZM97.9429 31.8932C105.359 26.0626 105.093 23.4903 97.027 19.0888C95.8452 21.3753 93.7475 23.6332 93.8066 25.8626C93.8066 27.7489 96.2884 29.6067 97.9724 31.8647L97.9429 31.8932ZM54.9259 56.2445C53.9805 56.216 53.0351 56.1588 52.0601 56.1302C50.701 58.5025 48.6329 60.7604 48.3079 63.247C48.1602 64.4188 51.2624 66.8768 53.1237 67.0769C54.5418 67.2484 57.5849 64.819 57.5849 63.5328C57.5849 61.0748 55.9009 58.6454 54.9259 56.216V56.2445ZM32.7084 98.2591C35.9287 98.9165 38.7946 100.374 40.8036 99.631C42.8126 98.8879 43.9944 95.944 45.8262 93.5718C39.1195 88.913 35.7515 90.2278 32.7084 98.2591ZM115.965 62.7897C114.281 59.3313 113.247 57.1877 112.124 54.8441C106.038 57.4735 103.615 60.4746 107.752 66.7339C110.352 65.4763 112.686 64.3617 115.965 62.7897Z" fill="black"/>
</g>
<defs>
<clipPath id="clip0_2_577">
<rect width="151.889" height="147.994" fill="white" transform="translate(0.888672 0.625)"/>
</clipPath>
</defs>
</svg>
