<svg width="173" height="141" viewBox="0 0 173 141" fill="none" xmlns="http://www.w3.org/2000/svg">
<g clip-path="url(#clip0_2_606)">
<path d="M59.5084 43.2289C64.9086 29.8134 73.1922 20.7262 88.8945 20.5997C103.994 20.4731 114.479 26.2949 118.883 41.1027C132.279 39.1283 145.019 33.914 159.07 38.3436V117.673C152.49 118.457 146.041 118.989 139.697 120.027C123.812 122.634 108.005 125.545 92.1188 128.152C89.445 128.582 86.3779 128.734 83.8352 127.949C64.8037 122.026 45.2742 119.242 25.3252 118.837C23.4378 118.812 21.5766 118.229 18.4309 117.673C16.3338 92.7145 14.2629 67.9337 12.1395 42.7227C28.4447 37.888 43.413 40.1661 59.4822 43.2289H59.5084ZM88.344 103.447C89.1042 110.484 89.7858 116.989 90.4673 123.292C112.54 119.976 133.563 116.812 155.242 113.547V41.5077C147.955 38.8246 129.972 41.2039 121.426 45.2792C116.76 54.6701 112.671 62.6688 108.765 70.7434C106.039 76.3628 102.29 81.8808 101.268 87.8292C99.9044 95.5748 97.8335 101.726 88.344 103.472V103.447ZM16.5435 45.7854C18.5096 68.6172 20.4232 91.1958 22.2582 112.559C44.8023 116.255 65.4066 119.647 86.6663 123.14C85.9061 116.685 85.1197 110.129 84.3332 103.371C77.5176 102.359 75.8923 98.0554 76.0758 92.7398C76.3117 85.8549 74.1884 80.4634 68.2902 75.8059C61.8677 70.7434 58.6958 63.4535 58.6696 55.1763C58.6696 53.126 58.355 51.0757 58.1453 48.4939C44.7499 45.8361 32.036 40.723 16.5173 45.7854H16.5435ZM90.1528 79.3749C90.7819 72.009 91.3586 65.4278 91.9091 58.8466L94.347 58.9732V79.4255C96.9684 78.4637 98.6986 78.3118 99.5636 77.4006C108.241 68.2122 115.318 58.2644 114.689 45.0261C114.217 34.7746 109.158 28.2693 99.3015 25.5609C89.1304 22.7765 79.8506 24.27 72.0912 31.6105C63.86 39.4067 60.5308 48.747 63.2571 59.7326C65.3018 67.9844 70.3349 74.0087 77.4651 78.3371C78.1991 78.1093 78.9593 77.8815 79.6933 77.6537V59.8844C80.3749 59.8844 81.0565 59.8844 81.738 59.8844C82.4458 66.1619 83.1274 72.4393 83.8614 78.9193C86.1944 79.0965 87.8721 79.2231 90.1528 79.4002V79.3749ZM78.8283 83.2224C80.5322 89.753 86.142 91.1199 96.9422 88.3608C97.0471 86.8927 97.1781 85.1968 97.3354 83.2224H78.8283ZM80.7943 93.0942C80.4011 93.6764 80.0079 94.2586 79.6147 94.8408C81.3972 96.2329 83.1798 98.8148 84.9361 98.8148C88.9731 98.8148 94.2946 99.7767 95.8412 93.0942H80.7681H80.7943Z" fill="black"/>
<path d="M4.40655 49.2313C6.13669 75.8093 7.86682 102.387 9.57074 128.383C20.004 128.383 29.7294 128.206 39.4286 128.434C55.8387 128.788 72.0652 130.13 87.4005 136.635C89.6811 137.597 93.1152 137.344 95.5269 136.432C116.131 128.737 137.705 126.257 159.489 124.662C161.822 124.485 164.103 124.004 168.035 123.422V39.4102C173.278 44.6245 173.566 115.929 169.66 126.029C162.923 126.966 155.61 127.624 148.427 129.041C131.204 132.458 114.086 136.458 96.8376 139.748C92.8268 140.508 88.0558 140.381 84.281 138.989C62.0514 130.914 39.1665 130.509 15.9932 132.534C13.2407 132.762 10.5144 133.015 6.84447 133.319C4.85219 104.893 2.88613 77.1509 0.946289 49.4338C2.09971 49.3579 3.25313 49.3073 4.40655 49.2313Z" fill="black"/>
<path d="M43.2552 16.2266C47.8165 18.6059 52.3778 20.9853 58.0138 23.9468C51.7486 25.744 45.2737 22.7318 42.3115 17.8719C42.6261 17.315 42.9407 16.7834 43.2552 16.2266Z" fill="black"/>
<path d="M120.378 22.279C124.153 16.5837 128.006 14.2044 134.402 15.0903C129.369 18.5328 125.463 21.2159 121.558 23.8737C121.164 23.3421 120.771 22.8106 120.404 22.279H120.378Z" fill="black"/>
<path d="M84.4377 13.1118C84.228 8.78338 84.0183 4.48028 83.8086 0.151874C84.8047 0.101249 85.8009 0.0506247 86.7708 0C86.9805 4.3031 87.1902 8.63151 87.4261 12.9346C86.43 12.9852 85.4339 13.0359 84.4377 13.0865V13.1118Z" fill="black"/>
<path d="M94.2944 46.9039C90.7031 50.1692 88.1079 52.5232 85.3292 55.0545C83.4418 53.9407 81.6854 52.8776 79.2213 51.4095C77.3863 54.2445 75.761 56.7757 74.1358 59.307C73.5328 59.1804 72.9037 59.0538 72.3008 58.9273C72.5891 56.8517 72.1173 53.7382 73.3494 52.8776C76.495 50.6754 80.4009 49.4351 83.8874 47.8911C88.737 47.2583 93.8488 45.0308 96.7848 46.6002C99.8518 48.2455 100.848 53.5357 102.762 57.2313C101.897 57.6363 101.031 58.0666 100.14 58.4716C98.3576 54.9785 96.6013 51.4601 94.2944 46.9292V46.9039Z" fill="black"/>
</g>
<defs>
<clipPath id="clip0_2_606">
<rect width="171.362" height="140.205" fill="white" transform="translate(0.946289)"/>
</clipPath>
</defs>
</svg>
