<svg width="164" height="157" viewBox="0 0 164 157" fill="none" xmlns="http://www.w3.org/2000/svg">
<g clip-path="url(#clip0_2_589)">
<path d="M0.22168 115.36C0.822046 113.465 1.2041 111.489 2.02278 109.729C5.0519 103.285 7.45337 96.3542 11.5195 90.5874C19.2424 79.6225 30.6493 75.5614 43.8028 77.971C57.2565 80.4618 66.9169 88.4215 71.6653 101.146C75.2675 110.812 75.2129 120.937 72.5931 131.009C68.527 146.549 51.3074 157.92 31.1406 156.35C12.9658 154.969 5.32479 143.734 0.22168 128.843C0.22168 124.349 0.22168 119.854 0.22168 115.36ZM69.8915 117.932C69.4548 114.927 69.2911 110.812 68.1995 106.967C64.57 94.2966 56.5743 85.4705 43.2025 83.115C30.5675 80.895 20.2248 85.7683 13.4297 96.3813C7.15318 106.182 5.37937 117.391 7.28963 128.789C8.62681 136.776 12.6929 143.679 20.1702 147.74C31.5499 153.913 43.2297 152.749 54.0363 146.874C64.7611 141.026 69.8369 131.171 69.9188 117.905L69.8915 117.932Z" fill="black"/>
<path d="M86.0753 0.734131C86.5938 1.14024 87.0304 1.70879 87.6035 1.95246C109.026 10.8056 120.187 34.6848 113.119 56.6689C107.361 74.5647 88.4495 84.8258 67.8187 81.1979C48.3068 77.7865 36.7634 62.4627 38.8647 42.9153C40.12 31.2194 43.8859 20.6335 52.0181 11.7803C56.9302 6.44673 62.5519 2.62931 70.0837 2.03368C71.3663 1.95246 72.5671 1.19439 73.8224 0.734131C77.8885 0.734131 81.9819 0.734131 86.0753 0.734131ZM110.663 42.1031C109.053 35.849 107.716 29.5137 105.833 23.3679C99.8019 3.82056 65.9084 -0.132234 54.4742 16.3829C47.2425 26.8334 43.5584 38.0149 44.1042 50.496C44.5681 61.1631 53.1916 72.9132 63.0704 75.4853C89.7867 82.3891 110.172 67.5526 110.69 42.1031H110.663Z" fill="black"/>
<path d="M163.794 115.446C162.593 128.901 158.718 142.032 144.609 149.342C130.119 156.842 115.573 155.461 101.847 147.366C91.9408 141.518 89.3484 131.446 88.1749 120.86C85.6097 97.9287 98.463 77.9752 119.585 72.0461C130.282 69.0408 139.725 71.1255 147.993 78.4355C158.854 88.0467 162.948 100.501 163.794 115.446ZM158.636 114.092C158.636 105.374 156.753 97.1707 151.896 89.7524C143.463 76.8923 131.647 72.9936 117.129 78.3272C95.6249 86.2328 85.0912 117.205 97.9445 136.103C100.81 140.326 105.504 144.333 110.225 146.147C137.651 156.679 159.455 140.299 158.609 114.065L158.636 114.092Z" fill="black"/>
<path d="M53.2181 141.084C43.6941 141.463 34.4703 141.896 25.2465 142.14C21.5351 142.248 20.1161 139.758 19.8705 136.482C19.3247 129.09 20.2798 122.132 25.8196 116.474C27.2386 115.039 28.4666 113.442 29.913 111.763C27.8663 104.94 27.1567 98.3074 34.3338 93.8672C38.2908 91.4035 42.1659 92.1886 45.5771 95.1668C49.9161 98.9842 50.1344 103.289 46.1501 111.655C54.3915 119.208 56.1108 128.847 53.2181 141.057V141.084ZM51.035 136.427C49.9707 130.986 49.534 126.302 48.0604 121.97C45.9045 115.608 39.819 113.577 33.7062 116.528C26.802 119.858 23.6091 128.035 25.9014 136.427H51.0622H51.035ZM34.4976 108.081C38.4545 109.435 41.9203 108.65 43.7214 105.076C44.4855 103.533 43.8851 100.365 42.6844 99.1196C41.5382 97.9554 38.2362 97.4681 36.8172 98.3074C33.406 100.257 32.2599 103.587 34.5249 108.081H34.4976Z" fill="black"/>
<path d="M85.3103 34.1682C94.5068 39.7184 95.2982 48.3008 94.1247 57.3435C93.8791 59.2928 92.4874 62.3792 91.1229 62.677C80.8075 64.8971 70.383 66.3862 59.4399 64.3827C58.13 53.878 57.284 44.1585 65.8802 36.2529C63.2604 29.2137 62.9602 22.4723 69.5643 17.4365C73.3302 14.5667 77.6146 14.5667 81.6535 17.0304C88.3121 21.0915 86.6474 27.2914 85.3103 34.1682ZM63.315 60.7548C72.5661 60.1592 80.8075 59.6448 89.0762 59.1304C91.3139 51.0894 90.0859 44.7812 84.9009 39.5559C82.1993 36.8485 73.1119 36.8485 69.4278 39.7454C62.9875 44.8083 62.9875 51.9828 63.315 60.7548ZM82.1993 25.7211C81.9537 22.5806 80.3436 19.8732 76.1956 19.6295C72.7026 19.44 68.7456 23.8801 68.8275 27.887C68.9093 32.0294 71.6383 33.8433 75.4042 34.0599C79.1156 34.2765 82.2266 30.5132 82.1993 25.6941V25.7211Z" fill="black"/>
<path d="M131.074 108.894C138.196 115.311 140.571 123.514 140.625 132.584C140.625 135.86 139.561 138.702 135.904 138.784C126.244 139 116.556 138.865 106.432 138.865C103.43 126.871 106.732 117.125 115.901 109.002C113.772 102.748 110.962 96.2776 117.948 91.3231C121.686 88.6698 125.862 89.103 129.382 91.7021C135.931 96.5754 133.557 102.775 131.074 108.894ZM111.071 135.291C119.585 134.858 127.854 134.425 137.269 133.965C135.549 128.198 134.567 123.866 133.011 119.778C129.737 111.141 121.004 109.869 115.191 117.152C111.398 121.917 110.006 127.413 111.098 135.318L111.071 135.291ZM131.756 100.555C128.236 97.5772 126.326 94.7073 123.924 94.22C120.104 93.4349 117.866 96.8732 118.603 100.095C119.176 102.586 121.714 105.753 124.006 106.376C125.561 106.809 128.208 103.371 131.729 100.555H131.756Z" fill="black"/>
</g>
<defs>
<clipPath id="clip0_2_589">
<rect width="163.573" height="155.783" fill="white" transform="translate(0.22168 0.730469)"/>
</clipPath>
</defs>
</svg>
