<?xml version="1.0" encoding="UTF-8" standalone="no"?>
<!DOCTYPE svg PUBLIC "-//W3C//DTD SVG 1.1//EN"
 "http://www.w3.org/Graphics/SVG/1.1/DTD/svg11.dtd">
<!-- Generated by graphviz version 12.2.0 (20241103.1931)
 -->
<!-- Title: G Pages: 1 -->
<svg width="516pt" height="403pt"
 viewBox="0.00 0.00 516.20 402.95" xmlns="http://www.w3.org/2000/svg" xmlns:xlink="http://www.w3.org/1999/xlink">
<g id="graph0" class="graph" transform="scale(1 1) rotate(0) translate(21.6 381.35)">
<title>G</title>
<polygon fill="#111111" stroke="none" points="-21.6,21.6 -21.6,-381.35 494.6,-381.35 494.6,21.6 -21.6,21.6"/>
<!-- .eslint.config.js -->
<g id="node1" class="node">
<title>.eslint.config.js</title>
<path fill="none" stroke="#cfffac" d="M164.46,-23.75C164.46,-23.75 75.79,-23.75 75.79,-23.75 71.83,-23.75 67.88,-19.79 67.88,-15.83 67.88,-15.83 67.88,-7.92 67.88,-7.92 67.88,-3.96 71.83,0 75.79,0 75.79,0 164.46,0 164.46,0 168.42,0 172.38,-3.96 172.38,-7.92 172.38,-7.92 172.38,-15.83 172.38,-15.83 172.38,-19.79 168.42,-23.75 164.46,-23.75"/>
<text text-anchor="middle" x="120.12" y="-6.45" font-family="Arial" font-size="14.00" fill="#cfffac">.eslint.config.js</text>
</g>
<!-- app/layout.tsx -->
<g id="node2" class="node">
<title>app/layout.tsx</title>
<path fill="none" stroke="#cfffac" d="M161.83,-65.75C161.83,-65.75 78.42,-65.75 78.42,-65.75 74.46,-65.75 70.5,-61.79 70.5,-57.83 70.5,-57.83 70.5,-49.92 70.5,-49.92 70.5,-45.96 74.46,-42 78.42,-42 78.42,-42 161.83,-42 161.83,-42 165.79,-42 169.75,-45.96 169.75,-49.92 169.75,-49.92 169.75,-57.83 169.75,-57.83 169.75,-61.79 165.79,-65.75 161.83,-65.75"/>
<text text-anchor="middle" x="120.12" y="-48.45" font-family="Arial" font-size="14.00" fill="#cfffac">app/layout.tsx</text>
</g>
<!-- app/page.test.tsx -->
<g id="node3" class="node">
<title>app/page.test.tsx</title>
<path fill="none" stroke="#c6c5fe" d="M171.58,-107.75C171.58,-107.75 68.67,-107.75 68.67,-107.75 64.71,-107.75 60.75,-103.79 60.75,-99.83 60.75,-99.83 60.75,-91.92 60.75,-91.92 60.75,-87.96 64.71,-84 68.67,-84 68.67,-84 171.58,-84 171.58,-84 175.54,-84 179.5,-87.96 179.5,-91.92 179.5,-91.92 179.5,-99.83 179.5,-99.83 179.5,-103.79 175.54,-107.75 171.58,-107.75"/>
<text text-anchor="middle" x="120.12" y="-90.45" font-family="Arial" font-size="14.00" fill="#c6c5fe">app/page.test.tsx</text>
</g>
<!-- app/page.tsx -->
<g id="node4" class="node">
<title>app/page.tsx</title>
<path fill="none" stroke="#cfffac" d="M413.33,-107.75C413.33,-107.75 335.92,-107.75 335.92,-107.75 331.96,-107.75 328,-103.79 328,-99.83 328,-99.83 328,-91.92 328,-91.92 328,-87.96 331.96,-84 335.92,-84 335.92,-84 413.33,-84 413.33,-84 417.29,-84 421.25,-87.96 421.25,-91.92 421.25,-91.92 421.25,-99.83 421.25,-99.83 421.25,-103.79 417.29,-107.75 413.33,-107.75"/>
<text text-anchor="middle" x="374.62" y="-90.45" font-family="Arial" font-size="14.00" fill="#cfffac">app/page.tsx</text>
</g>
<!-- app/page.test.tsx&#45;&gt;app/page.tsx -->
<g id="edge1" class="edge">
<title>app/page.test.tsx&#45;&gt;app/page.tsx</title>
<path fill="none" stroke="#757575" d="M179.69,-95.88C220.75,-95.88 275.37,-95.88 316.18,-95.88"/>
<polygon fill="#757575" stroke="#757575" points="316.06,-99.38 326.06,-95.88 316.06,-92.38 316.06,-99.38"/>
</g>
<!-- components/Button/Button.stories.tsx -->
<g id="node5" class="node">
<title>components/Button/Button.stories.tsx</title>
<path fill="none" stroke="#c6c5fe" d="M232.33,-149.75C232.33,-149.75 7.92,-149.75 7.92,-149.75 3.96,-149.75 0,-145.79 0,-141.83 0,-141.83 0,-133.92 0,-133.92 0,-129.96 3.96,-126 7.92,-126 7.92,-126 232.33,-126 232.33,-126 236.29,-126 240.25,-129.96 240.25,-133.92 240.25,-133.92 240.25,-141.83 240.25,-141.83 240.25,-145.79 236.29,-149.75 232.33,-149.75"/>
<text text-anchor="middle" x="120.12" y="-132.45" font-family="Arial" font-size="14.00" fill="#c6c5fe">components/Button/Button.stories.tsx</text>
</g>
<!-- components/Button/Button.tsx -->
<g id="node6" class="node">
<title>components/Button/Button.tsx</title>
<path fill="none" stroke="#cfffac" d="M465.08,-149.75C465.08,-149.75 284.17,-149.75 284.17,-149.75 280.21,-149.75 276.25,-145.79 276.25,-141.83 276.25,-141.83 276.25,-133.92 276.25,-133.92 276.25,-129.96 280.21,-126 284.17,-126 284.17,-126 465.08,-126 465.08,-126 469.04,-126 473,-129.96 473,-133.92 473,-133.92 473,-141.83 473,-141.83 473,-145.79 469.04,-149.75 465.08,-149.75"/>
<text text-anchor="middle" x="374.62" y="-132.45" font-family="Arial" font-size="14.00" fill="#cfffac">components/Button/Button.tsx</text>
</g>
<!-- components/Button/Button.stories.tsx&#45;&gt;components/Button/Button.tsx -->
<g id="edge2" class="edge">
<title>components/Button/Button.stories.tsx&#45;&gt;components/Button/Button.tsx</title>
<path fill="none" stroke="#757575" d="M240.72,-137.88C248.68,-137.88 256.68,-137.88 264.59,-137.88"/>
<polygon fill="#757575" stroke="#757575" points="264.59,-141.38 274.59,-137.88 264.59,-134.38 264.59,-141.38"/>
</g>
<!-- components/Tooltip/Tooltip.tsx -->
<g id="node7" class="node">
<title>components/Tooltip/Tooltip.tsx</title>
<path fill="none" stroke="#cfffac" d="M210.58,-191.75C210.58,-191.75 29.67,-191.75 29.67,-191.75 25.71,-191.75 21.75,-187.79 21.75,-183.83 21.75,-183.83 21.75,-175.92 21.75,-175.92 21.75,-171.96 25.71,-168 29.67,-168 29.67,-168 210.58,-168 210.58,-168 214.54,-168 218.5,-171.96 218.5,-175.92 218.5,-175.92 218.5,-183.83 218.5,-183.83 218.5,-187.79 214.54,-191.75 210.58,-191.75"/>
<text text-anchor="middle" x="120.12" y="-174.45" font-family="Arial" font-size="14.00" fill="#cfffac">components/Tooltip/Tooltip.tsx</text>
</g>
<!-- jest.config.js -->
<g id="node8" class="node">
<title>jest.config.js</title>
<path fill="none" stroke="#cfffac" d="M157.33,-233.75C157.33,-233.75 82.92,-233.75 82.92,-233.75 78.96,-233.75 75,-229.79 75,-225.83 75,-225.83 75,-217.92 75,-217.92 75,-213.96 78.96,-210 82.92,-210 82.92,-210 157.33,-210 157.33,-210 161.29,-210 165.25,-213.96 165.25,-217.92 165.25,-217.92 165.25,-225.83 165.25,-225.83 165.25,-229.79 161.29,-233.75 157.33,-233.75"/>
<text text-anchor="middle" x="120.12" y="-216.45" font-family="Arial" font-size="14.00" fill="#cfffac">jest.config.js</text>
</g>
<!-- jest.setup.js -->
<g id="node9" class="node">
<title>jest.setup.js</title>
<path fill="none" stroke="#cfffac" d="M155.83,-275.75C155.83,-275.75 84.42,-275.75 84.42,-275.75 80.46,-275.75 76.5,-271.79 76.5,-267.83 76.5,-267.83 76.5,-259.92 76.5,-259.92 76.5,-255.96 80.46,-252 84.42,-252 84.42,-252 155.83,-252 155.83,-252 159.79,-252 163.75,-255.96 163.75,-259.92 163.75,-259.92 163.75,-267.83 163.75,-267.83 163.75,-271.79 159.79,-275.75 155.83,-275.75"/>
<text text-anchor="middle" x="120.12" y="-258.45" font-family="Arial" font-size="14.00" fill="#cfffac">jest.setup.js</text>
</g>
<!-- report&#45;bundle&#45;size.js -->
<g id="node10" class="node">
<title>report&#45;bundle&#45;size.js</title>
<path fill="none" stroke="#cfffac" d="M181.33,-317.75C181.33,-317.75 58.92,-317.75 58.92,-317.75 54.96,-317.75 51,-313.79 51,-309.83 51,-309.83 51,-301.92 51,-301.92 51,-297.96 54.96,-294 58.92,-294 58.92,-294 181.33,-294 181.33,-294 185.29,-294 189.25,-297.96 189.25,-301.92 189.25,-301.92 189.25,-309.83 189.25,-309.83 189.25,-313.79 185.29,-317.75 181.33,-317.75"/>
<text text-anchor="middle" x="120.12" y="-300.45" font-family="Arial" font-size="14.00" fill="#cfffac">report&#45;bundle&#45;size.js</text>
</g>
<!-- styles/tailwind.css -->
<g id="node11" class="node">
<title>styles/tailwind.css</title>
<path fill="none" stroke="#cfffac" d="M173.83,-359.75C173.83,-359.75 66.42,-359.75 66.42,-359.75 62.46,-359.75 58.5,-355.79 58.5,-351.83 58.5,-351.83 58.5,-343.92 58.5,-343.92 58.5,-339.96 62.46,-336 66.42,-336 66.42,-336 173.83,-336 173.83,-336 177.79,-336 181.75,-339.96 181.75,-343.92 181.75,-343.92 181.75,-351.83 181.75,-351.83 181.75,-355.79 177.79,-359.75 173.83,-359.75"/>
<text text-anchor="middle" x="120.12" y="-342.45" font-family="Arial" font-size="14.00" fill="#cfffac">styles/tailwind.css</text>
</g>
</g>
</svg>
