<svg width="84" height="101" viewBox="0 0 84 101" fill="none" xmlns="http://www.w3.org/2000/svg">
<path d="M26.5263 14.14V79.588C23.7129 76.76 19.6938 75.144 15.2727 75.144C6.83254 75.144 0 80.8 0 88.072C0 95.344 6.83254 101 15.2727 101C23.7129 101 30.5455 95.344 30.5455 88.072V39.188L79.9809 27.068V66.66C77.1675 63.832 73.1483 62.216 68.7273 62.216C60.2871 62.216 53.4545 67.872 53.4545 75.144C53.4545 82.416 60.2871 88.072 68.7273 88.072C77.1675 88.072 84 82.416 84 75.144V0L26.5263 14.14Z" fill="white"/>
</svg>
