<svg width="94" height="95" viewBox="0 0 94 95" fill="none" xmlns="http://www.w3.org/2000/svg">
<path d="M0 27.1429V84.8214C0 90.4332 4.51871 95 10.0714 95H83.9286C89.4813 95 94 90.4332 94 84.8214V27.1429H0ZM62.6342 66.9479L43.6429 78.0357C42.5921 78.6498 41.4406 78.9552 40.2857 78.9552C39.1309 78.9552 37.976 78.6498 36.9286 78.0357C34.827 76.8109 33.5714 74.6123 33.5714 72.1627V49.9904C33.5714 47.5373 34.827 45.3421 36.9286 44.1173C39.0268 42.8857 41.5379 42.8891 43.6429 44.1173L62.6342 55.2052C64.7358 56.43 65.9914 58.6286 65.9914 61.0816C65.9914 63.5346 64.7358 65.7332 62.6342 66.958V66.9479ZM94 20.3571V10.1786C94 4.56679 89.4813 0 83.9286 0H10.0714C4.51871 0 0 4.56679 0 10.1786V20.3571H94ZM77.2143 6.78571C79.0674 6.78571 80.5714 8.30571 80.5714 10.1786C80.5714 12.0514 79.0674 13.5714 77.2143 13.5714C75.3611 13.5714 73.8571 12.0514 73.8571 10.1786C73.8571 8.30571 75.3611 6.78571 77.2143 6.78571ZM63.7857 6.78571C65.6389 6.78571 67.1429 8.30571 67.1429 10.1786C67.1429 12.0514 65.6389 13.5714 63.7857 13.5714C61.9326 13.5714 60.4286 12.0514 60.4286 10.1786C60.4286 8.30571 61.9326 6.78571 63.7857 6.78571Z" fill="white"/>
</svg>
