<svg width="82" height="107" viewBox="0 0 82 107" fill="none" xmlns="http://www.w3.org/2000/svg">
<path fill-rule="evenodd" clip-rule="evenodd" d="M33.6031 0H66.5582C70.8092 0 74.6718 1.71594 77.4684 4.48202C80.265 7.24372 82 11.0641 82 15.2729V91.7271C82 95.9317 80.2651 99.752 77.4684 102.518C74.6762 105.28 70.8135 107 66.5582 107H15.4418C11.1908 107 7.32815 105.284 4.53159 102.518C1.73503 99.7563 0 95.9359 0 91.7271V33.2355C0 31.161 0.379787 29.206 1.14803 27.3876C1.91193 25.5563 3.04261 23.9044 4.52728 22.4404L22.6886 4.47776C24.1732 3.01369 25.8434 1.89953 27.6905 1.13548C29.5334 0.379938 31.5056 0 33.6031 0ZM38.7044 47.6111H64.1719C65.5702 47.6111 66.7096 48.7337 66.7096 50.121C66.7096 51.504 65.5746 52.6309 64.1719 52.6309H38.7044C37.3061 52.6309 36.1667 51.5084 36.1667 50.121C36.1667 48.738 37.3017 47.6111 38.7044 47.6111ZM17.8329 65.0229H64.1708C65.5691 65.0229 66.7085 66.1455 66.7085 67.5329C66.7085 68.9158 65.5735 70.0428 64.1708 70.0428H17.8329C16.4346 70.0428 15.2952 68.9202 15.2952 67.5329C15.2952 66.1499 16.4302 65.0229 17.8329 65.0229ZM17.8329 82.4348H64.1708C65.5691 82.4348 66.7085 83.5574 66.7085 84.9447C66.7085 86.3277 65.5735 87.4547 64.1708 87.4547H17.8329C16.4346 87.4547 15.2952 86.3321 15.2952 84.9447C15.2952 83.5617 16.4302 82.4348 17.8329 82.4348ZM32.8211 29.9533C32.8211 31.3363 31.6861 32.4633 30.2834 32.4633H16.9392C15.5409 32.4633 14.4015 31.3407 14.4015 29.9533C14.4015 28.5704 15.5365 27.4434 16.9392 27.4434H27.7458V16.755C27.7458 15.372 28.8808 14.2451 30.2835 14.2451C31.6818 14.2451 32.8212 15.3677 32.8212 16.755L32.8211 29.9533Z" fill="white"/>
</svg>
