<svg width="110" height="110" viewBox="0 0 110 110" fill="none" xmlns="http://www.w3.org/2000/svg">
<path d="M55 0C24.6201 0 0 24.6201 0 55C0 85.3799 24.6201 110 55 110C85.3799 110 110 85.3799 110 55C110 24.6201 85.3799 0 55 0ZM40.3183 78.6037H28.2341V42.1253H40.3183V78.6037ZM34.295 37.1184C30.0787 37.1184 27.4812 34.2574 27.4812 30.8316C27.4812 27.18 30.1164 24.5448 34.295 24.5448C38.5113 24.5448 41.1088 27.18 41.1088 30.8316C41.1088 34.2574 38.4736 37.1184 34.295 37.1184ZM84.1376 78.9049H72.0534V59.2163C72.0534 54.2094 70.4723 50.8214 66.0301 50.8214C62.6044 50.8214 60.5339 53.193 59.7433 55.2635C59.2163 56.0541 59.2163 57.1081 59.2163 58.1246V78.6037H47.1321C47.1321 78.6037 47.3956 45.5133 47.1321 42.1253H59.2163V47.358C60.7974 44.9863 63.6585 41.3347 70.2464 41.3347C78.4155 41.3347 84.1752 46.5674 84.1376 57.8987V78.9049Z" fill="white"/>
</svg>
