<svg width="1058" height="409" viewBox="0 0 1058 409" fill="none" xmlns="http://www.w3.org/2000/svg">
<path d="M92.4769 338.191H55.9156C54.1629 338.191 52.7484 339.76 52.7484 341.704V352.551C52.7484 354.495 54.1629 356.064 55.9156 356.064H78.6396C74.5806 374.926 57.5761 377.178 49.7042 377.178C30.9777 377.178 16.3101 361.249 16.3101 340.885C16.3101 320.522 31.1007 304.218 49.2429 304.218C57.0841 304.218 64.587 307.186 70.1834 312.438C71.4442 313.632 73.2891 313.564 74.4576 312.302L81.4993 304.73C82.8215 303.297 82.7908 300.909 81.407 299.579C72.8279 291.154 61.266 286.379 49.2737 286.379C36.0513 286.379 23.69 292.075 14.4344 302.478C5.27098 312.745 0.258789 326.389 0.258789 340.885C0.258789 355.382 5.30173 368.889 14.4344 379.054C23.69 389.355 36.2358 395.017 49.7349 395.017C77.5941 395.017 95.6134 376.223 95.6134 347.127V341.704C95.6134 339.76 94.1681 338.191 92.4461 338.191H92.4769Z" fill="#CDF020"/>
<path d="M500.523 383.385H480.659V371.072H497.295C498.309 371.072 499.17 370.151 499.17 368.991V363.158C499.17 362.033 498.34 361.078 497.295 361.078H480.659V347.98H499.878C500.892 347.98 501.753 347.059 501.753 345.899V340.237C501.753 339.111 500.923 338.156 499.878 338.156H472.51C471.496 338.156 470.635 339.077 470.635 340.237V391.128C470.635 392.253 471.465 393.209 472.51 393.209H500.523C501.538 393.209 502.399 392.288 502.399 391.128V385.466C502.399 384.272 501.569 383.351 500.523 383.351V383.385Z" fill="#CDF020"/>
<path d="M533.427 347.671C538.04 347.671 541.822 349.786 544.59 353.265C545.235 354.083 546.312 354.22 547.111 353.606L551.723 349.888C552.584 349.172 552.769 347.807 552.092 346.886C547.572 340.917 540.777 337.199 533.089 337.199C519.067 337.199 507.905 350.127 507.905 365.612C507.905 381.098 519.067 394.127 533.089 394.127C540.777 394.127 547.572 390.375 552.092 384.44C552.769 383.52 552.615 382.155 551.723 381.439L547.111 377.721C546.342 377.073 545.235 377.243 544.59 378.062C541.822 381.541 538.04 383.656 533.366 383.656C524.356 383.656 517.899 375.436 517.899 365.612C517.899 355.789 524.449 347.637 533.427 347.637V347.671Z" fill="#CDF020"/>
<path d="M580.657 383.382H571.217V348.011H580.657C588.929 348.011 593.172 356.402 593.172 365.816C593.172 375.23 588.929 383.382 580.657 383.382ZM580.657 338.188H563.068C562.053 338.188 561.192 339.108 561.192 340.268V391.159C561.192 392.285 562.023 393.24 563.068 393.24H580.657C594.925 393.24 603.196 381.404 603.196 365.85C603.196 350.296 594.925 338.222 580.657 338.222V338.188Z" fill="#CDF020"/>
<path d="M1132.74 114.024C1128.46 106.555 1126.06 96.8334 1129.85 92.7744C1131.01 91.5123 1132.64 90.9666 1134.52 90.9666C1138.92 90.9666 1144.64 94.0364 1148.85 98.3001C1161.03 110.545 1167.42 128.691 1168.01 147.588C1152.75 139.163 1140.61 127.702 1132.74 114.024ZM995.223 203.936C978.157 190.224 963.89 174.432 960.384 161.095C958.939 155.672 959.708 151.613 962.783 148.031C964.228 146.872 965.704 146.531 967.733 146.906C975.144 148.304 984.276 158.366 988.059 165.12C992.671 173.374 995.931 187.53 995.285 203.936H995.223ZM357.415 356.302C357.261 356.814 357.077 357.326 356.892 357.803C352.526 348.798 350.342 339.009 350.865 329.629C351.326 321.715 353.048 318.714 354.401 317.588C355.355 316.804 356.031 316.565 356.492 316.565C356.861 316.565 357.138 316.701 357.323 316.804C359.383 317.895 361.751 321.988 361.935 326.388C362.396 335.496 360.736 346.376 357.415 356.302ZM253.942 366.501C242.903 378.644 223.07 380.179 211.539 369.775C201.268 360.498 197.578 342.727 202.959 328.435C207.172 317.281 213.291 310.05 221.993 306.469C220.979 312.847 222.055 319.839 225.284 325.809C228.881 332.528 234.847 337.917 242.565 341.431C249.238 344.432 256.495 345.694 263.628 345.285C262.337 353.335 259.047 360.907 253.942 366.501ZM238.844 307.594C239.982 305.548 242.688 304.32 245.486 304.32C246.593 304.32 247.731 304.49 248.776 304.934C254.434 307.117 258.155 313.529 259.877 317.179C261.353 320.351 262.491 323.694 263.198 327.139C258.309 327.514 253.297 326.695 248.746 324.615C245.701 323.216 241.581 320.692 239.398 316.565C237.799 313.666 237.584 309.914 238.814 307.662L238.844 307.594ZM140.445 339.282H123.256V304.831H142.69C152.038 304.831 157.512 312.608 157.512 322.193C157.512 331.778 152.469 339.282 140.445 339.282ZM432.352 299.135C419.652 301.727 402.77 298.555 395.667 285.56C392.869 280.443 392.07 272.496 395.667 268.573C396.59 267.584 397.912 266.697 399.573 265.913C402.156 264.719 405.015 264.139 407.967 264.139C414.763 264.139 422.02 267.243 427.493 272.871C431.275 276.794 435.427 281.057 439.024 297.293C436.81 298.01 434.596 298.624 432.321 299.067L432.352 299.135ZM1563.29 -36.6019C1562.46 -41.5478 1558.13 -44.7881 1553.7 -43.8331C1492.32 -30.9057 1460.4 5.82996 1426.61 44.7145C1394.94 81.1772 1359.05 122.449 1291.83 152.329C1257.95 164.472 1224.06 166.45 1193.77 158.025C1190.45 157.104 1187.22 156.047 1184.09 154.921C1185.1 128.384 1176.92 102.086 1159.8 84.8269C1148.23 73.1616 1129.78 67.4312 1118.34 79.7105C1107.03 91.8875 1111.55 111.057 1118.84 123.78C1128.83 141.244 1145.31 156.456 1166.5 166.86C1164.16 179.992 1158.97 192.714 1150.91 203.322C1129.32 231.735 1089.56 244.731 1051.99 235.692C1040.92 233.031 1025.6 225.357 1010.63 215.329C1013.58 191.657 1009.71 169.588 1001.9 155.569C996.73 146.292 984.061 131.591 970.378 128.998C963.582 127.702 957.248 129.51 952.082 134.149C951.866 134.319 951.651 134.558 951.467 134.763C943.779 143.222 941.381 154.103 944.579 166.212C949.652 185.62 969.763 207.108 992.456 224.061C990.303 233.373 986.798 242.923 981.54 252.201C964.443 282.422 924.93 316.19 833.788 305.514C807.405 302.648 781.637 289.073 754.362 274.679C699.474 245.788 637.544 213.146 560.393 270.381C560.209 270.518 551.599 277.339 551.199 277.851C547.017 281.705 543.235 285.764 539.729 289.516C533.118 296.645 526.876 303.399 519.404 307.083C517.067 308.242 511.378 310.528 508.734 306.742C507.534 305.036 506.581 302.614 505.566 300.056C505.351 299.51 505.136 298.965 504.921 298.419C497.756 280.648 486.594 278.465 480.567 278.738C472.91 279.079 466.299 283.24 460.488 286.89C458.643 288.05 456.921 289.141 455.291 290.028C455.014 290.164 454.737 290.335 454.461 290.471C451.601 279.113 446.927 268.13 438.625 259.568C426.079 246.641 407.844 242.446 393.269 249.131C389.64 250.768 386.596 252.951 384.167 255.544C379.555 260.524 376.941 267.55 376.787 275.361C376.664 282.149 378.355 289.107 381.584 294.974C392.777 315.439 416.608 320.794 435.242 317.008C437.548 316.531 439.762 315.951 441.976 315.269C442.253 317.486 442.561 319.839 442.806 322.295L443.022 324.376C444.467 337.474 442.745 351.425 438.256 362.715C434.842 371.31 428.17 382.635 415.593 387.921C402.432 393.481 387.242 390.48 374.02 379.633C371.867 377.859 369.838 375.949 367.931 373.937C369.776 370.423 371.406 366.637 372.728 362.578C376.849 350.231 378.817 337.031 378.263 325.399C377.74 314.518 372.113 304.422 364.241 300.295C357.845 296.952 350.681 297.873 344.561 302.887C338.412 307.935 335.091 316.292 334.383 328.435C333.492 344.057 338.135 360.464 346.837 374.38C342.501 378.746 338.289 380.486 335.952 381.168C329.463 383.044 324.236 382.089 320.023 378.269C311.29 370.389 307.354 351.186 307.969 336.28C308.031 334.95 308.062 333.654 308.123 332.426C308.492 321.75 308.769 313.904 316.118 296.031C316.825 294.292 316.149 292.211 314.611 291.392L305.448 286.549C303.88 285.73 302.004 286.447 301.266 288.186C292.164 308.856 286.721 315.473 278.757 321.17C277.712 316.838 276.267 312.574 274.329 308.549C270.855 301.216 264.52 291.631 254.096 287.606C251.79 286.719 249.391 286.208 247.024 286.037C217.812 282.558 197.886 294.394 187.738 321.306C181.096 338.975 183.495 359.577 193.15 374.448C182.572 379.599 169.75 377.348 161.14 367.797C157.542 363.806 155.021 358.929 153.699 353.608C166.583 349.958 174.424 335.837 174.424 321.818C174.424 305.036 165.353 288.152 143.828 288.152H109.296C107.543 288.152 106.129 289.721 106.129 291.665V389.627C106.129 391.571 107.543 393.14 109.296 393.14H119.997C121.75 393.14 123.164 391.571 123.164 389.627V354.904H131.836L136.479 354.767C138.17 364.727 142.506 373.903 149.117 381.202C158.065 391.128 169.811 396.074 181.588 396.074C190.26 396.074 198.931 393.379 206.496 387.956C214.491 393.174 224.054 395.562 234.047 394.777C246.132 393.822 257.294 388.365 265.443 379.394C274.668 369.264 279.834 355.245 280.572 340.783C282.724 339.725 284.846 338.497 286.844 337.133C288.566 335.939 290.165 334.711 291.703 333.449C291.703 334.131 291.641 334.813 291.641 335.53C291.211 345.49 292.379 356.166 294.87 365.58C297.976 377.245 303.111 386.591 309.753 392.526C318.086 400.03 328.602 402.213 340.164 398.905C346.591 397.029 352.526 393.413 357.661 388.263C359.752 390.446 361.996 392.492 364.333 394.402C376.111 404.021 389.21 409.001 402.094 409.001C408.705 409.001 415.224 407.705 421.497 405.044C452.4 392.015 462.794 352.96 459.381 322.227L459.165 320.146C458.766 316.497 458.335 312.711 457.812 308.822C459.442 308.004 461.01 307.185 462.425 306.435C464.516 305.309 466.576 304.047 468.544 302.785C472.972 300.022 477.523 297.157 481.213 296.986C484.534 296.85 487.455 299.851 489.915 305.923C490.13 306.435 490.315 306.946 490.499 307.424C491.821 310.766 493.297 314.518 495.757 317.998C502.461 327.514 514.084 329.731 526.107 323.728C536.193 318.714 543.819 310.528 551.168 302.614C607.071 241.491 677.457 251.485 747.32 291.154C774.687 305.548 802.946 320.453 832.127 323.66C844.458 325.092 855.897 325.774 866.598 325.774C942.18 325.774 978.28 292.245 995.439 261.922C1000.54 252.917 1004.29 243.503 1006.91 234.089C1021.91 243.605 1036.89 250.7 1048.51 253.497C1092.55 264.139 1137.66 249.063 1163.45 215.124C1172.71 202.947 1178.86 188.451 1181.9 173.34C1213.73 184.358 1253.61 185.313 1297.12 169.657C1297.28 169.588 1297.46 169.52 1297.65 169.452C1368.31 138.106 1405.55 95.2302 1438.42 57.4372C1471.75 19.0984 1500.5 -14.0216 1556.77 -25.8575C1561.17 -26.9149 1564.09 -31.6902 1563.26 -36.636L1563.29 -36.6019Z" fill="#CDF020"/>
</svg>
