<svg width="739" height="181" viewBox="0 0 739 181" fill="none" xmlns="http://www.w3.org/2000/svg">
<path d="M68.0234 121.588H95.8408C90.8472 142.509 70.1111 144.937 60.4625 144.937C37.4694 144.937 19.6109 127.404 19.6109 104.874C19.6109 82.3441 37.7797 64.3314 59.9828 64.3314C69.6315 64.3314 78.8005 67.5499 85.7125 73.3377C87.3206 74.6365 89.5776 74.6365 90.8472 73.1683L99.5366 64.8113C101.145 63.202 101.145 60.6328 99.3673 59.1647C88.7595 49.8195 74.7661 44.5117 59.9546 44.5117C43.7043 44.5117 28.5825 50.7795 17.3257 62.2139C6.06899 73.6483 0.0033301 88.6119 0.0033301 104.705C-0.165944 120.798 6.12542 135.761 17.2129 147.026C28.6389 158.461 43.9018 164.728 60.4625 164.728C94.543 164.728 116.746 143.977 116.746 111.791V105.834C116.746 103.745 114.969 101.966 112.881 101.966H68.0234C65.9357 101.966 64.1583 103.745 64.1583 105.834V117.748C64.1583 119.838 65.9357 121.616 68.0234 121.616V121.588Z" fill="white"/>
<path d="M437.606 121.927C437.436 122.407 437.126 123.057 436.957 123.537C431.653 113.57 428.916 102.785 429.565 92.4801C430.045 83.7843 432.302 80.3963 433.91 79.1258C435.038 78.3353 435.828 77.9965 436.477 77.9965C436.957 77.9965 437.295 78.1659 437.436 78.307C440.004 79.4364 442.909 84.0948 443.079 88.9227C443.558 98.889 441.64 110.803 437.606 121.927ZM310.706 133.192C297.193 146.716 272.902 148.325 258.767 136.721C246.213 126.416 241.727 106.794 248.3 91.012C253.435 78.6176 260.996 70.7406 271.632 66.7032C270.334 73.7897 271.801 81.4974 275.666 88.1039C280.011 95.501 287.403 101.458 296.882 105.326C305.092 108.714 313.922 109.985 322.781 109.505C321.004 118.511 316.998 126.896 310.706 133.164V133.192ZM292.227 68.0019C293.666 65.7433 296.882 64.3034 300.437 64.3034C301.735 64.3034 303.174 64.4728 304.471 64.9528C311.383 67.3808 316.038 74.4391 318.154 78.4764C319.932 82.0056 321.371 85.7324 322.189 89.4309C316.236 89.9109 310.114 88.9509 304.5 86.6923C300.804 85.083 295.81 82.3444 293.074 77.8271C290.986 74.6085 290.817 70.43 292.255 68.0019H292.227ZM150.545 103.096V64.9528H174.356C185.782 64.9528 192.525 73.4792 192.525 84.0948C192.525 94.7105 186.403 102.926 171.619 102.926H150.545V103.096ZM529.437 58.6568C513.835 61.5648 493.24 58.0074 484.41 43.6932C481.024 38.0466 480.065 29.2096 484.41 24.8617C485.538 23.7324 487.147 22.7725 489.234 21.9537C492.45 20.655 495.836 20.0339 499.532 20.0339C507.883 20.0339 516.741 23.4218 523.484 29.6896C528.139 34.0375 533.133 38.696 537.647 56.7369C534.91 57.5557 532.173 58.1768 529.437 58.6568ZM600.024 66.0821C600.335 66.5621 600.504 67.2114 600.842 67.6914C602.451 71.3899 604.228 75.5684 607.275 79.4364C615.485 89.9109 629.788 92.4801 644.431 85.8735C656.816 80.2269 666.154 71.2205 675.154 62.5247C690.276 47.7306 704.749 33.7269 734.823 33.5575C736.911 33.5575 738.688 31.9482 738.688 29.859L738.998 17.4646C738.998 15.206 737.39 13.4273 735.133 13.4273C718.403 13.4273 703.93 16.9564 690.896 24.2124C678.68 30.9601 669.342 39.9947 661.132 48.0411C653.092 55.9182 645.362 63.3435 636.193 67.522C633.287 68.8207 626.375 71.3899 623.158 67.2114C621.72 65.2916 620.591 62.6941 619.293 59.8143C618.983 59.165 618.814 58.685 618.475 58.0356C609.616 38.4136 595.962 35.9856 588.711 36.2961C579.373 36.6067 571.191 41.2934 564.11 45.3025C561.853 46.6012 559.765 47.7023 557.677 48.6905C557.367 48.8599 557.029 49.001 556.718 49.1704C553.192 36.6067 547.549 24.3818 537.252 15.0648C521.819 0.750633 499.616 -3.93607 481.758 3.48925C477.244 5.26793 473.548 7.66775 470.67 10.5758C465.028 16.053 461.812 23.93 461.671 32.4564C461.501 40.0229 463.589 47.5894 467.454 54.1959C481.137 76.8954 510.393 82.6832 533.217 78.5047C535.954 78.0247 538.86 77.3753 541.427 76.5848C541.737 79.0129 542.076 81.5821 542.386 84.3207L542.697 86.5793C544.474 101.063 542.386 116.506 536.913 128.901C532.738 138.387 524.528 150.951 509.096 156.739C493.015 162.865 474.366 159.477 458.116 147.563C455.549 145.643 452.981 143.526 450.724 141.295C452.981 137.427 454.9 133.249 456.677 128.731C461.671 115.038 464.069 100.414 463.42 87.6804C462.771 75.5967 455.859 64.501 446.21 60.012C438.339 56.3134 429.65 57.2734 422.089 62.92C414.528 68.5666 410.522 77.7141 409.534 91.0966C408.406 108.319 414.189 126.501 424.825 141.945C419.521 146.772 414.359 148.692 411.481 149.511C403.61 151.6 397.177 150.471 392.014 146.292C381.237 137.597 376.413 116.365 377.231 99.9336C377.231 98.4937 377.4 97.0256 377.4 95.5857C377.88 83.8407 378.218 75.1449 387.218 55.3535C388.036 53.4337 387.218 51.175 385.3 50.2151L374.043 44.9072C372.125 43.9473 369.868 44.7379 368.908 46.6859C357.821 69.5265 351.05 76.7824 341.26 83.2196C339.963 78.3917 338.213 73.7333 335.787 69.216C331.442 61.1695 323.712 50.5539 311.017 46.0366C308.111 45.0766 305.233 44.4273 302.327 44.2579C266.639 40.3899 242.178 53.6031 229.624 83.1914C221.414 102.672 224.489 125.513 236.226 141.945C223.191 147.591 207.59 145.163 196.982 134.547C192.637 130.2 189.421 124.722 187.813 118.935C203.584 114.897 213.232 99.3125 213.232 83.8407C213.232 65.3198 202.145 46.6577 175.766 46.6577H133.645C131.558 46.6577 129.78 48.4364 129.78 50.5256V158.828C129.78 160.917 131.558 162.696 133.645 162.696H146.821C148.908 162.696 150.686 160.917 150.686 158.828V120.374H161.293L166.936 120.205C169.024 131.159 174.328 141.295 182.368 149.483C193.315 160.437 207.788 165.886 222.091 165.886C232.699 165.886 243.307 162.837 252.645 156.88C262.463 162.668 274.199 165.237 286.415 164.446C301.199 163.317 314.882 157.36 324.841 147.394C336.097 136.128 342.53 120.685 343.348 104.733C346.085 103.604 348.652 102.164 351.078 100.724C353.166 99.4254 355.113 97.9855 357.031 96.6868C357.031 97.5056 357.031 98.1267 356.862 98.9455C356.382 109.9 357.821 121.786 360.896 132.091C364.761 144.965 371.024 155.271 379.065 161.877C389.362 170.234 402.227 172.662 416.362 168.964C424.233 166.874 431.483 162.837 437.747 157.219C440.314 159.647 443.051 161.877 445.956 163.966C460.429 174.582 476.51 180.059 492.281 180.059C500.322 180.059 508.362 178.619 516.092 175.711C554.038 161.228 566.762 118.088 562.558 84.1513L562.248 81.8926C561.768 77.8553 561.289 73.6768 560.64 69.3289C562.558 68.369 564.505 67.5502 566.282 66.5903C568.85 65.2916 571.417 63.8517 573.843 62.553C579.316 59.5038 584.79 56.2852 589.445 56.1158C593.479 56.1158 597.006 59.5038 600.052 66.0821H600.024Z" fill="white"/>
<path d="M588.598 138.161H609.023C610.321 138.161 611.28 137.201 611.28 135.902V129.465C611.28 128.166 610.321 127.206 609.023 127.206H588.598V112.723H612.07C613.368 112.723 614.327 111.763 614.327 110.464V104.196C614.327 102.897 613.368 101.938 612.07 101.938H578.611C577.313 101.938 576.354 102.897 576.354 104.196V160.352C576.354 161.651 577.313 162.61 578.611 162.61H612.86C614.158 162.61 615.117 161.651 615.117 160.352V154.084C615.117 152.785 614.158 151.825 612.86 151.825H588.569V138.132L588.598 138.161Z" fill="white"/>
<path d="M653.261 112.27C658.903 112.27 663.558 114.529 666.944 118.397C667.762 119.357 669.032 119.526 669.991 118.708L675.633 114.84C676.762 114.049 676.931 112.581 676.113 111.452C670.64 104.845 662.289 100.836 652.781 100.836C635.572 100.836 621.917 115.15 621.917 132.231C621.917 149.312 635.6 163.768 652.781 163.768C662.261 163.768 670.47 159.589 676.113 153.152C676.931 152.192 676.762 150.583 675.633 149.764L669.991 145.585C669.032 144.936 667.734 145.105 666.944 145.896C663.558 149.764 658.903 152.023 653.12 152.023C642.032 152.023 634.133 143.016 634.133 132.062C634.133 121.107 642.173 112.27 653.261 112.27Z" fill="white"/>
<path d="M711.153 151.854H699.586V112.751H711.153C721.281 112.751 726.444 122.096 726.444 132.373C726.444 142.65 721.31 151.854 711.153 151.854ZM711.153 101.797H689.599C688.301 101.797 687.342 102.757 687.342 104.056V160.211C687.342 161.51 688.301 162.47 689.599 162.47H711.153C728.673 162.47 738.801 149.426 738.801 132.204C738.632 115.151 728.504 101.797 711.153 101.797Z" fill="white"/>
</svg>
