<svg width="63" height="63" viewBox="0 0 63 63" fill="none" xmlns="http://www.w3.org/2000/svg">
<path fill-rule="evenodd" clip-rule="evenodd" d="M59.8506 25.2C61.59 25.2 63 23.7897 63 22.05V3.15C63 1.41032 61.59 0 59.8506 0H40.9425C39.2031 0 37.7931 1.41029 37.7931 3.15C37.7931 4.88968 39.2031 6.3 40.9425 6.3H52.2478L25.1415 33.4108C23.9116 34.6409 23.9116 36.6354 25.1415 37.8655C26.3716 39.0959 28.3655 39.0959 29.5954 37.8655L56.7011 10.7553V22.05C56.7011 23.7897 58.1111 25.2 59.8506 25.2ZM9.44835 9.45C4.23018 9.45 0 13.6809 0 18.9V53.55C0 58.7692 4.23018 63 9.44835 63H44.0923C49.3106 63 53.5406 58.7692 53.5406 53.55V34.65C53.5406 32.9103 52.1306 31.5 50.3912 31.5C48.6517 31.5 47.2417 32.9103 47.2417 34.65V53.55C47.2417 55.2897 45.8317 56.7 44.0923 56.7H9.44835C7.70897 56.7 6.2989 55.2897 6.2989 53.55V18.9C6.2989 17.1603 7.70897 15.75 9.44835 15.75H28.345C30.0845 15.75 31.4945 14.3397 31.4945 12.6C31.4945 10.8603 30.0845 9.45 28.345 9.45H9.44835Z" fill="#003B5B"/>
</svg>
