<svg width="110" height="110" viewBox="0 0 110 110" fill="none" xmlns="http://www.w3.org/2000/svg">
<path d="M63.9575 54.6194L49.462 46.7316C48.8671 46.3928 46.834 46.822 46.834 47.5072V62.8875C46.834 63.5614 48.8521 63.9906 49.4432 63.6706L64.5862 56.1782C65.1999 55.8468 64.5637 54.9658 63.9537 54.6194H63.9575Z" fill="white"/>
<path d="M55 0C24.6235 0 0 24.6235 0 55C0 85.3765 24.6235 110 55 110C85.3765 110 110 85.3765 110 55C110 24.6235 85.3765 0 55 0ZM84.4465 62.8577C84.4465 70.1506 78.5316 76.0655 71.2387 76.0655H37.4699C30.177 76.0655 24.262 70.1544 24.262 62.8577V47.1423C24.262 39.8494 30.177 33.9345 37.4699 33.9345H71.2425C78.5354 33.9345 84.4503 39.8494 84.4503 47.1423V62.8577H84.4465Z" fill="white"/>
</svg>
