<svg width="178" height="152" viewBox="0 0 178 152" fill="none" xmlns="http://www.w3.org/2000/svg">
<g clip-path="url(#clip0_2_553)">
<path d="M142.986 0.308594C143.235 3.16501 143.513 6.02143 143.901 10.1535C146.868 11.9839 150.889 14.452 155.105 17.0589C157.379 14.868 159.265 12.9268 161.317 11.1796C162.648 10.0426 164.451 9.54343 165.421 11.3738C165.865 12.2057 165.31 13.9251 164.672 14.9235C163.175 17.1975 161.372 19.2774 159.348 21.8565C162.287 26.8483 165.172 31.757 167.917 36.4437C170.357 36.7765 172.437 37.0261 174.961 37.3589C172.715 41.2968 170.357 44.3197 169.165 47.7585C167.917 51.3636 167.806 55.3571 167.113 59.5724C168.361 60.0993 169.553 60.5985 170.746 61.0699C174.822 62.7616 177.512 66.2281 177.485 69.7501C177.457 73.3276 174.018 77.9589 169.831 78.3748C164.756 78.874 163.147 81.3977 161.677 85.8903C155.354 105.22 132.198 117.976 111.787 113.955C109.596 113.512 107.378 113.179 105.104 112.763C102.524 118.198 100.361 123.246 97.8099 128.071C91.5702 139.857 82.1135 147.789 68.7188 150.257C51.7467 153.363 37.4369 148.149 25.6784 135.808C24.5691 134.644 23.5707 133.34 22.822 131.954C20.4647 127.572 17.1369 125.686 11.8955 125.131C2.32784 124.133 -2.13705 114.87 2.16145 106.856C3.96404 103.473 6.95913 102.114 11.2854 101.642C8.09615 83.9768 12.3114 68.835 26.5936 57.3815C40.7925 46.0113 56.4057 43.8482 73.1837 50.8645C77.5931 47.4534 78.7024 39.3556 86.7725 42.4616C88.8524 39.5774 89.934 37.1647 86.6061 34.6411C85.164 33.5318 83.8606 32.0897 85.4136 29.5384C87.1608 29.7048 89.102 29.9266 91.487 30.1485C93.2618 27.4862 95.1476 24.6575 96.7838 22.2171C97.0334 18.3068 90.5996 16.6152 94.2325 12.2889C96.8023 13.0469 99.4184 14.6092 102.081 16.9757C106.351 14.7571 110.789 12.4553 115.586 9.93168C115.448 8.60053 115.032 7.26939 115.254 6.04917C115.531 4.63482 116.335 3.33141 116.917 1.97253C118.054 2.85996 119.386 3.581 120.273 4.66256C120.911 5.46679 120.966 6.77021 121.382 8.15682H137.301C138.271 5.41133 139.186 2.85996 140.102 0.308594C141.017 0.308594 141.96 0.308594 142.875 0.308594L142.986 0.308594ZM75.6796 58.3522C75.4023 59.2951 75.0695 59.9052 75.014 60.5707C74.8754 62.6507 75.014 65.1188 72.2408 65.3407C69.218 65.5626 69.6617 62.7616 69.218 60.9035C68.8852 59.5724 68.7466 58.158 68.2196 56.9101C67.8037 55.9395 67.0549 54.6638 66.1952 54.4142C63.4497 53.6377 60.7597 51.8074 57.4873 53.3049C57.7923 55.2739 58.1528 57.0488 58.3192 58.8514C58.4579 60.5985 57.931 62.3179 55.8788 62.207C54.825 62.1515 53.3552 61.0699 52.9115 60.0716C51.8854 57.8253 51.3862 55.3571 50.4433 52.2788C46.3944 53.8041 42.6783 55.2184 39.2672 56.4941C39.2672 61.6246 43.5934 65.1743 41.1807 69.9442C35.9116 69.1955 36.0502 63.0944 31.5022 60.959C29.3113 63.1221 26.9541 65.3962 24.6523 67.6979C26.9263 71.4141 28.9785 74.4369 30.587 77.7093C31.003 78.5412 30.2819 80.3161 29.5054 81.1481C29.1449 81.564 27.1759 81.2313 26.4826 80.6212C24.5136 78.8463 22.822 76.7664 20.9639 74.6865C17.331 80.7598 17.3587 81.5086 20.9639 85.8625C22.406 87.6097 23.9313 89.3291 25.0128 91.2981C25.3733 91.9359 24.68 93.4612 24.0145 94.21C23.5985 94.6814 22.1841 94.7646 21.5186 94.4041C19.8546 93.5166 18.3848 92.3242 15.8889 90.577C16.7209 94.7369 17.3033 97.5933 17.8302 100.477C18.884 106.19 17.9966 107.3 12.1451 107.521C6.79273 107.716 4.62962 111.598 7.31965 116.257C8.81719 118.864 11.1467 120.278 14.1418 120.112C19.6882 119.779 22.8774 122.608 25.7893 127.017C33.1661 138.249 44.0094 144.683 57.3209 145.626C69.2457 146.457 80.2 143.019 88.0482 133.201C96.9502 122.053 102.219 109.657 99.7789 95.0419C99.2798 92.0468 99.8621 90.0224 102.136 87.7761C103.939 86.0289 105.048 83.1448 105.547 80.5934C106.213 77.1269 103.273 75.0192 99.8899 76.1563C99.0302 76.4336 98.3369 77.1269 97.5326 77.5429C93.6778 79.5951 93.6224 79.5673 91.0155 75.9067C90.3777 75.0192 89.7121 74.1318 89.1852 73.4108C87.2994 73.6326 85.8574 73.799 83.6942 74.0486C83.8606 67.3929 83.8052 61.0422 75.6519 58.4354L75.6796 58.3522ZM94.9258 71.9132C96.1737 71.7191 96.8948 71.7746 97.5049 71.4973C102.108 69.3064 106.102 70.3048 109.43 73.8822C112.258 76.905 112.48 82.1187 108.958 86.5836C104.993 91.6031 104.798 96.8445 105.492 102.696C105.852 105.691 106.962 107.022 109.901 107.826C125.348 112.042 144.483 104.859 152.831 91.2981C154.744 88.1921 156.214 84.7533 157.379 81.3145C158.821 77.016 160.79 73.8268 166.031 74.1873C166.891 74.2427 168.083 74.0209 168.638 73.4662C169.858 72.3015 171.411 70.9149 171.605 69.4451C171.883 67.3929 170.025 66.3945 167.973 66.1172C165.532 65.7844 162.787 66.2559 160.984 63.344C161.594 60.9313 162.454 58.3522 162.953 55.6899C166.808 35.2789 154.328 18.9724 137.911 14.6462C124.849 11.1796 104.299 17.0866 96.6175 33.8923C95.0922 37.2202 94.2325 40.8254 92.9291 44.2365C92.2358 46.0391 91.2097 47.7307 90.2945 49.5333C88.2978 48.7291 87.0498 48.0912 85.7187 47.7307C82.7236 46.9265 80.4218 48.2576 80.5328 51.225C80.616 53.083 81.5866 55.1352 82.7236 56.6605C85.0808 59.7388 87.965 62.4288 90.4054 65.4516C92.0971 67.5315 93.4837 69.9165 94.8981 71.9964L94.9258 71.9132Z" fill="black"/>
<path d="M78.5392 100.867C79.8703 105.776 81.3401 109.409 81.7839 113.153C82.8099 121.389 76.7366 129.237 68.6665 130.818C59.2375 132.648 49.9195 127.601 47.7287 119.254C47.3959 117.978 48.2278 116.314 48.7547 114.9C48.9489 114.345 49.6976 113.874 50.28 113.541C58.7938 108.494 67.89 104.805 78.5392 100.895V100.867ZM74.2407 107.301C70.5246 109.104 67.169 110.518 63.9798 112.321C60.7073 114.151 56.6862 114.927 54.2457 118.033C58.9602 125.438 65.0058 127.518 71.0515 124.051C76.3761 121.001 77.7627 114.678 74.2129 107.301H74.2407Z" fill="black"/>
<path d="M78.1508 87.2191C69.1656 82.671 68.9437 82.782 65.8932 91.3512C65.6159 92.1555 64.9503 92.7933 64.4511 93.5143C60.8737 91.0739 60.014 87.9124 61.8166 84.4736C64.1461 80.0642 69.8312 77.4851 74.0187 79.2877C75.5995 79.9533 77.0693 81.3399 78.0399 82.7542C78.6223 83.5862 78.1508 85.1392 78.1508 87.2191Z" fill="black"/>
<path d="M47.9484 98.5882C40.3498 96.0646 40.3775 96.0646 37.2161 103.941C36.8278 104.883 35.8572 105.604 35.1639 106.409C31.6419 103.441 31.1704 100.779 33.1949 96.9798C35.4412 92.8199 40.2943 90.4349 44.0382 91.5997C47.6157 92.7367 48.5863 94.4561 47.893 98.5605L47.9484 98.5882Z" fill="black"/>
<path d="M146.813 80.228C142.514 83.8055 139.408 86.4123 136.302 88.9914C132.087 92.5134 127.178 93.0958 122.048 92.042C120.495 91.7369 119.164 90.4612 116.252 88.7418C124.017 85.6913 132.725 89.1301 136.496 81.0045C137.245 78.8414 133.612 76.5396 137.328 73.7109C140.074 75.5967 143.097 77.6489 146.813 80.1725V80.228Z" fill="black"/>
<path d="M116.089 55.889C115.091 53.6149 114.453 52.256 113.87 50.8417C112.206 46.765 109.073 45.9885 106.05 49.0668C104.83 50.3148 104.386 52.3115 103.166 53.6149C102.389 54.4469 100.725 55.1402 99.727 54.8629C99.0059 54.6687 98.2294 52.6998 98.3958 51.6737C99.6438 43.3817 108.268 38.9723 114.702 43.4094C116.422 44.6019 117.642 46.7928 118.585 48.7618C119.5 50.6753 119.223 50.814 116.089 55.8612V55.889Z" fill="black"/>
<path d="M146.344 61.954C145.928 60.3455 145.706 59.0143 145.262 57.7664C144.014 54.2999 141.823 53.6066 138.967 55.8806C137.553 57.0176 136.554 58.6538 135.14 59.8186C133.421 61.2329 131.23 60.29 131.036 58.2378C130.786 55.4092 133.67 51.4712 137.22 49.8072C141.102 48.0046 144.791 48.5038 147.453 51.1384C150.115 53.8007 150.531 57.5445 148.479 61.122C148.313 61.4271 147.675 61.4548 146.316 61.9262L146.344 61.954Z" fill="black"/>
</g>
<defs>
<clipPath id="clip0_2_553">
<rect width="176.959" height="150.808" fill="white" transform="translate(0.582031 0.308594)"/>
</clipPath>
</defs>
</svg>
