<svg width="169" height="149" viewBox="0 0 169 149" fill="none" xmlns="http://www.w3.org/2000/svg">
<g clip-path="url(#clip0_2_580)">
<path d="M75.3901 99.8864C76.0501 100.792 76.5923 101.565 77.1817 102.294C85.0317 112.033 92.9525 121.729 100.708 131.513C102.335 133.567 103.584 135.908 104.763 138.227C106.154 141.009 105.329 143.35 103.018 145.559C99.6238 148.828 92.5988 149.137 88.9214 147.149C81.9671 143.35 74.9422 139.64 68.153 135.576C57.0026 128.907 46.0409 121.95 34.9377 115.214C33.8533 114.551 32.2975 114.198 31.0009 114.286C21.5715 114.927 13.4386 112.585 7.14439 105.717C-0.469899 97.4349 -1.20068 88.3136 3.77336 78.7065C8.91241 68.7681 17.7525 62.7387 28.6907 59.4039C40.1475 55.8923 50.4727 50.7243 59.8786 43.6791C66.1256 38.9969 69.9446 33.0339 72.4905 26.1212C74.8007 19.8489 75.9087 13.4662 74.9893 6.8627C74.5414 3.72657 77.441 0.237079 81.3307 0.391677C84.1123 0.502104 86.1632 1.12049 87.5541 3.35112C89.5343 6.5535 91.7738 9.64546 93.4004 13.0024C99.223 24.9948 104.999 37.0313 110.491 49.1562C117.54 64.7043 124.376 80.3187 131.118 95.9994C132.226 98.6054 132.65 101.609 132.768 104.436C133.004 109.957 127.771 113.049 122.42 110.686C120.369 109.781 118.506 108.5 116.644 107.263C110.232 102.934 103.231 99.8864 95.4277 98.6275C88.7328 97.5453 82.1321 97.7441 75.3665 99.8643L75.3901 99.8864ZM113.273 98.8042C113.414 98.6717 113.579 98.5613 113.721 98.4287C103.749 72.6551 90.4301 48.2066 79.4212 22.7421C78.879 23.5151 78.5254 24.2881 78.2896 25.1052C74.8008 36.9209 67.5165 46.0422 56.2483 52.3365C51.3921 55.0309 46.5831 57.7916 41.7505 60.5302C40.8547 61.0382 40.0768 61.4578 40.6425 62.7167C46.0645 74.7311 51.4628 86.7897 56.8376 98.8263C57.4034 100.063 58.1342 100.394 59.5014 99.8864C62.6132 98.7379 65.8192 97.7883 68.9073 96.5736C81.7314 91.6044 94.5083 91.8031 107.309 96.5957C109.289 97.3466 111.269 98.0754 113.249 98.8042H113.273ZM52.1465 102.802C51.84 101.94 51.6986 101.388 51.4864 100.88C46.5831 89.5504 41.6562 78.1985 36.7293 66.8687C34.8906 62.6504 34.8434 62.6283 30.3173 64.1964C21.5007 67.2442 14.0515 71.9484 9.33674 79.7887C4.73988 87.4302 5.30564 94.6742 10.7747 100.196C14.5701 104.038 19.1669 106.887 24.3531 108.765C25.9326 109.339 27.9363 109.449 29.6101 109.118C33.4761 108.367 37.2715 107.285 41.0433 106.203C44.7443 105.143 48.3747 103.95 52.17 102.757L52.1465 102.802ZM40.1711 112.166C40.9726 112.718 41.4676 113.116 41.9862 113.447C51.7457 119.454 61.4581 125.528 71.3118 131.424C77.7475 135.289 84.3481 138.933 90.9251 142.622C94.3433 144.543 97.0307 144.411 99.5295 142.511C100.802 141.539 101.203 140.413 100.284 139.044C99.3173 137.608 98.4451 136.106 97.3607 134.759C88.9214 124.49 80.4348 114.264 71.9719 104.038C70.3453 102.073 69.1902 101.764 66.715 102.647C63.9569 103.641 61.2459 104.701 58.4878 105.695C52.5472 107.815 46.6067 109.913 40.1946 112.188L40.1711 112.166ZM125.225 107.771C127.252 106.335 128.148 104.988 127.441 102.978C126.262 99.6434 125.413 96.1981 123.952 92.9737C111.835 66.0957 99.6238 39.262 87.4126 12.4061C86.6819 10.7939 85.9747 9.11541 84.8667 7.74611C84.2774 7.01729 82.8158 6.64184 81.7785 6.66393C81.2599 6.66393 80.5291 7.96697 80.3641 8.73996C80.1991 9.66754 80.3406 10.7497 80.6942 11.6331C82.7451 16.7349 84.7253 21.8808 87.0355 26.8941C98.6808 52.2482 110.397 77.5801 122.137 102.912C122.891 104.546 124.093 106.004 125.225 107.749V107.771Z" fill="black"/>
<path d="M164.617 69.6306C154.763 68.4821 145.64 67.422 136.564 66.3399C135.244 66.1853 133.853 65.6552 134.042 64.1755C134.23 62.6516 135.527 61.7461 137.153 61.7461C139.086 61.7461 141.019 61.9449 142.953 62.1436C150.213 62.8724 157.474 63.6233 164.735 64.3743C167.516 64.6614 169.001 66.5386 167.587 68.2171C166.856 69.0784 165.3 69.3435 164.64 69.6527L164.617 69.6306Z" fill="black"/>
<path d="M128.405 42.7775C127.839 42.3357 126.613 41.8278 126.448 41.099C126.259 40.326 126.872 39.1334 127.532 38.5371C128.31 37.8303 129.489 37.4549 130.573 37.1678C137.693 35.2022 144.812 33.2586 151.955 31.3814C153.982 30.8513 155.491 31.5139 155.986 32.8832C156.481 34.2083 155.703 35.5334 153.581 36.2402C151.012 37.1015 148.348 37.7641 145.708 38.4487C140.686 39.7738 135.642 41.0327 130.62 42.3137C130.031 42.4683 129.442 42.5566 128.381 42.7775H128.405Z" fill="black"/>
<path d="M116.525 18.4381C114.262 18.394 113.272 17.1351 114.026 15.6554C114.592 14.5511 115.346 13.4468 116.313 12.6297C120.32 9.20644 124.493 5.91572 128.5 2.49248C129.797 1.38821 131.282 1.43238 132.626 1.85201C133.239 2.05077 133.946 3.3759 133.781 4.01637C133.521 5.0323 132.767 6.07032 131.895 6.77705C127.604 10.2886 123.196 13.6898 118.811 17.0909C118.01 17.7093 117.043 18.151 116.525 18.4381Z" fill="black"/>
<path d="M75.6256 123.031C75.3427 122.855 74.5884 122.612 74.1876 122.104C72.0424 119.476 69.8736 116.825 67.9642 114.043C67.4691 113.336 67.5163 111.9 67.9642 111.127C68.6714 109.935 70.0858 109.471 71.3116 110.686C72.396 111.768 73.3861 112.961 74.2819 114.175C75.5785 115.92 76.875 117.665 77.983 119.52C79.0674 121.331 78.0301 123.031 75.602 122.987L75.6256 123.031Z" fill="black"/>
</g>
<defs>
<clipPath id="clip0_2_580">
<rect width="167.467" height="147.994" fill="white" transform="translate(0.661133 0.414062)"/>
</clipPath>
</defs>
</svg>
