<svg width="160" height="141" viewBox="0 0 160 141" fill="none" xmlns="http://www.w3.org/2000/svg">
<g clip-path="url(#clip0_2_547)">
<path d="M55.0804 140.518C50.041 122.785 49.2182 104.582 48.0663 85.0491C51.8305 85.8468 54.6484 85.8263 56.7876 87.0126C66.6814 92.494 75.5261 90.735 83.7949 83.8219C86.5511 81.5312 89.3485 79.2405 91.714 76.5816C92.8659 75.2931 93.0304 73.1455 93.6475 71.3661L92.1254 70.2412C88.3407 72.0206 84.3297 73.4523 80.8329 75.6612C71.6385 81.4699 63.3903 80.754 54.9981 73.8C50.7609 70.2821 45.4541 68.0323 42.5744 66.3551C35.0872 67.071 29.8832 67.5618 23.548 68.155C12.1321 78.1769 2.93772 90.5305 4.66552 108.202C5.11804 112.947 5.11804 117.733 5.77625 122.437C6.84585 130.168 13.9628 134.463 20.0718 131.048C17.9532 123.807 14.8061 116.588 13.9422 109.122C13.0783 101.78 12.4612 93.7416 17.4184 87.2376C17.9326 87.3194 18.4468 87.4012 18.9611 87.483C18.4674 92.4531 18.2411 97.4641 17.3978 102.373C16.1637 109.593 17.4389 116.199 21.0385 122.498C21.8819 123.971 22.6018 125.526 23.116 127.141C24.8438 132.541 21.5528 136.611 15.8345 136.284C9.08788 135.916 3.53422 131.314 2.17666 124.442C0.119747 114.072 -1.13497 103.682 1.80641 93.169C4.27471 84.3742 8.88219 77.0316 15.4849 70.8139C17.1921 69.1981 18.9405 67.5823 20.6066 66.0279C9.25243 47.9679 12.6875 38.7027 33.236 33.4463V0.3125C74.0863 0.966995 113.97 1.60104 154.717 2.25553C156.404 27.7604 153.771 52.4676 153.648 76.2953C156.136 79.1791 158.132 81.4903 159.736 83.372C158.522 88.9761 154.902 88.792 151.447 88.7307C137.069 88.4034 122.691 87.9943 108.293 87.6467C104.014 87.5444 99.7359 87.5853 95.4576 87.483C89.5542 87.3399 84.0006 88.0557 78.7554 91.2668C72.5024 95.0915 65.7146 94.8256 59.0091 92.1258C57.1167 91.3691 55.2655 90.5714 52.3447 89.3647C52.3447 91.7577 52.1596 93.4962 52.3653 95.1733C54.0725 108.652 55.8826 122.11 57.5487 135.609C57.7544 137.204 57.2402 138.902 57.0756 140.558H55.0187L55.0804 140.518ZM37.4527 5.44619V35.2871C37.9052 35.0825 38.3577 34.8576 38.7897 34.653C41.4225 38.8459 45.2895 42.7729 46.318 47.3339C47.4081 52.1199 45.8037 57.5194 45.3512 62.7349C50.3289 65.9461 55.7386 69.1776 60.8603 72.8387C66.0643 76.5611 71.0626 76.8475 76.5957 73.6773C80.5861 71.3865 84.7616 69.3822 89.0194 67.6027C93.6063 65.7006 96.6917 67.705 97.3293 72.6137C97.4733 73.7386 97.4528 74.884 97.535 76.3362H112.489C113.62 74.6795 114.669 73.1455 115.944 71.2843H138.488C139.146 73.6159 139.619 75.3749 140.051 76.9498H149.657C150.398 53.1425 151.138 29.8261 151.899 5.42574H37.4527V5.44619ZM43.7057 51.3835C43.6234 44.1227 37.8435 38.0687 30.994 38.0891C24.1856 38.0891 18.0766 44.3068 18.0354 51.2813C18.0149 58.4807 24.3502 64.3507 32.1664 64.3712C38.5634 64.3712 43.7674 58.5216 43.6851 51.404L43.7057 51.3835ZM155.581 84.3128C155.663 83.7401 155.766 83.1674 155.848 82.5948C154.1 82.1653 152.372 81.3676 150.624 81.3471C132.667 81.1221 114.69 80.9994 96.7328 80.979C94.9845 80.979 93.2361 81.8585 91.4877 82.3493C91.5906 83.0038 91.6728 83.6788 91.7757 84.3333H155.602L155.581 84.3128ZM136.431 76.5816C133.922 72.8592 121.971 72.6955 117.096 76.5816H136.431Z" fill="black"/>
</g>
<defs>
<clipPath id="clip0_2_547">
<rect width="159.678" height="140.205" fill="white" transform="translate(0.0996094 0.3125)"/>
</clipPath>
</defs>
</svg>
