<svg width="172" height="141" viewBox="0 0 172 141" fill="none" xmlns="http://www.w3.org/2000/svg">
<g clip-path="url(#clip0_2_597)">
<path d="M58.7674 43.8539C64.1675 30.4384 72.4511 21.3512 88.1534 21.2247C103.253 21.0981 113.738 26.9199 118.142 41.7277C131.538 39.7533 144.278 34.539 158.329 38.9686V118.298C151.749 119.082 145.3 119.614 138.956 120.652C123.071 123.259 107.263 126.17 91.3777 128.777C88.7039 129.207 85.6368 129.359 83.0941 128.574C64.0626 122.651 44.5331 119.867 24.5841 119.462C22.6967 119.437 20.8355 118.854 17.6898 118.298C15.5927 93.3395 13.5218 68.5587 11.3984 43.3477C27.7036 38.513 42.6719 40.7911 58.7411 43.8539H58.7674ZM87.6029 104.072C88.3631 111.109 89.0447 117.614 89.7262 123.917C111.799 120.601 132.822 117.437 154.501 114.172V42.1327C147.214 39.4496 129.231 41.8289 120.685 45.9042C116.019 55.2951 111.93 63.2938 108.024 71.3684C105.297 76.9878 101.549 82.5058 100.526 88.4542C99.1633 96.1998 97.0924 102.351 87.6029 104.097V104.072ZM15.8024 46.4104C17.7685 69.2422 19.6821 91.8208 21.5171 113.184C44.0612 116.88 64.6655 120.272 85.9252 123.765C85.165 117.31 84.3786 110.754 83.5921 103.996C76.7765 102.984 75.1512 98.6804 75.3347 93.3648C75.5706 86.4799 73.4473 81.0884 67.5491 76.4309C61.1266 71.3684 57.9547 64.0785 57.9285 55.8013C57.9285 53.751 57.6139 51.7007 57.4042 49.1189C44.0088 46.4611 31.295 41.348 15.7762 46.4104H15.8024ZM89.4117 79.9999C90.0408 72.634 90.6175 66.0528 91.168 59.4716L93.6059 59.5982V80.0505C96.2273 79.0887 97.9575 78.9368 98.8225 78.0256C107.499 68.8372 114.577 58.8894 113.948 45.6511C113.476 35.3996 108.417 28.8943 98.5604 26.1859C88.3893 23.4015 79.1095 24.895 71.3501 32.2355C63.1189 40.0317 59.7897 49.372 62.516 60.3576C64.5607 68.6094 69.5938 74.6337 76.724 78.9621C77.458 78.7343 78.2182 78.5065 78.9522 78.2787V60.5094C79.6338 60.5094 80.3154 60.5094 80.9969 60.5094C81.7047 66.7869 82.3863 73.0643 83.1203 79.5443C85.4533 79.7215 87.131 79.8481 89.4117 80.0252V79.9999ZM78.0872 83.8474C79.7911 90.378 85.4009 91.7449 96.2011 88.9858C96.306 87.5177 96.4371 85.8218 96.5943 83.8474H78.0872ZM80.0532 93.7192C79.66 94.3014 79.2668 94.8836 78.8736 95.4658C80.6562 96.8579 82.4387 99.4398 84.1951 99.4398C88.232 99.4398 93.5535 100.402 95.1001 93.7192H80.027H80.0532Z" fill="black"/>
<path d="M3.66534 49.8563C5.39547 76.4343 7.12561 103.012 8.82952 129.008C19.2627 129.008 28.9882 128.831 38.6874 129.059C55.0975 129.413 71.324 130.755 86.6593 137.26C88.9399 138.222 92.3739 137.969 94.7856 137.057C115.39 129.362 136.964 126.882 158.748 125.287C161.081 125.11 163.362 124.629 167.294 124.047V40.0352C172.537 45.2495 172.825 116.554 168.919 126.654C162.182 127.591 154.868 128.249 147.686 129.666C130.463 133.083 113.345 137.083 96.0964 140.373C92.0856 141.133 87.3146 141.006 83.5398 139.614C61.3102 131.539 38.4253 131.134 15.252 133.159C12.4995 133.387 9.77323 133.64 6.10326 133.944C4.11098 105.518 2.14492 77.7759 0.205078 50.0588C1.3585 49.9829 2.51192 49.9323 3.66534 49.8563Z" fill="black"/>
<path d="M42.514 16.8516C47.0753 19.2309 51.6365 21.6103 57.2726 24.5718C51.0074 26.369 44.5325 23.3568 41.5703 18.4969C41.8849 17.94 42.1995 17.4084 42.514 16.8516Z" fill="black"/>
<path d="M119.637 22.9001C123.412 17.2048 127.265 14.8255 133.661 15.7114C128.628 19.1539 124.722 21.837 120.816 24.4948C120.423 23.9632 120.03 23.4317 119.663 22.9001H119.637Z" fill="black"/>
<path d="M83.6965 13.7368C83.4868 9.40838 83.2771 5.10528 83.0674 0.776874C84.0635 0.726249 85.0597 0.675625 86.0296 0.625C86.2393 4.9281 86.449 9.25651 86.6849 13.5596C85.6888 13.6102 84.6927 13.6609 83.6965 13.7115V13.7368Z" fill="black"/>
<path d="M93.5522 47.5289C89.9609 50.7942 87.3657 53.1482 84.587 55.6795C82.6996 54.5657 80.9433 53.5026 78.4791 52.0345C76.6441 54.8695 75.0189 57.4007 73.3936 59.932C72.7907 59.8054 72.1615 59.6788 71.5586 59.5523C71.8469 57.4767 71.3751 54.3632 72.6072 53.5026C75.7529 51.3004 79.6588 50.0601 83.1452 48.5161C87.9948 47.8833 93.1066 45.6558 96.0426 47.2252C99.1096 48.8705 100.106 54.1607 102.019 57.8563C101.154 58.2613 100.289 58.6916 99.398 59.0966C97.6154 55.6035 95.8591 52.0851 93.5522 47.5542V47.5289Z" fill="black"/>
</g>
<defs>
<clipPath id="clip0_2_597">
<rect width="171.362" height="140.205" fill="white" transform="translate(0.205078 0.625)"/>
</clipPath>
</defs>
</svg>
